# xmcd
#
# Track frame offsets:
#	150
#	16024
#	30986
#	47981
#	63887
#	81269
#
# Disc length: 1298 seconds
# Revision: 1
# Processed by: cddbd v1.5.2PL0 Copyright (c) Steve Scherf et al.
# Submitted via: dBpowerAMP V12.0
#
DISCID=3c051006
DTITLE=Sandrine - Boosted² CD2 - in the Club
DYEAR=2008
DGENRE=Dance
TTITLE0=01-In the Back
TTITLE1=02-Just Dance
TTITLE2=03-So Hot (Featuring Darryl Cole)
TTITLE3=Empty Heats
TTITLE4=05-Why Ya Messing Whith Me
TTITLE5=Sandrine/06-Walk Away (Bash'Em on Down)
EXTD=
EXTT0=
EXTT1=
EXTT2=
EXTT3=
EXTT4=
EXTT5=
PLAYORDER=
